<svg version="1.1" xmlns="http://www.w3.org/2000/svg" viewBox="0 0 484.9751260044202 567" width="484.9751260044202" height="567">
  <!-- svg-source:excalidraw -->
  
  <defs>
    <style>
      @font-face {
        font-family: "Virgil";
        src: url("https://excalidraw.com/Virgil.woff2");
      }
      @font-face {
        font-family: "Cascadia";
        src: url("https://excalidraw.com/Cascadia.woff2");
      }
    </style>
  </defs>
  <g stroke-linecap="round" transform="translate(116 10) rotate(0 51 24)"><path d="M12 0 M12 0 C30.03 -0.85, 44.29 0.7, 90 0 M12 0 C33.64 -1.42, 54.71 -1.43, 90 0 M90 0 C96.21 1.32, 103.29 3.96, 102 12 M90 0 C95.82 -1.22, 101.72 3.57, 102 12 M102 12 C101.15 17.42, 102.06 26.1, 102 36 M102 12 C101.59 18.58, 101.03 26.27, 102 36 M102 36 C101.99 42.05, 98.13 47.6, 90 48 M102 36 C103.58 45.7, 96.86 47.24, 90 48 M90 48 C63.48 47.87, 38.74 47.56, 12 48 M90 48 C67.3 46.92, 43.7 47.07, 12 48 M12 48 C4.97 49.39, -0.49 42.25, 0 36 M12 48 C3.25 48.88, -2.17 43.65, 0 36 M0 36 C-0.02 32.54, 0.5 27.17, 0 12 M0 36 C-0.27 27.92, -0.29 20.13, 0 12 M0 12 C1.33 3.93, 2.81 -1.97, 12 0 M0 12 C0.74 3.3, 2.87 0.82, 12 0" stroke="#000000" stroke-width="1" fill="none"></path></g><g transform="translate(121 22.5) rotate(0 46 11.5)"><text x="46" y="18" font-family="Helvetica, Segoe UI Emoji" font-size="20px" fill="#000000" text-anchor="middle" style="white-space: pre;" direction="ltr">程序入口</text></g><g stroke-linecap="round" transform="translate(98 134) rotate(0 59.5 17.5)"><path d="M1.64 1.92 C40.5 -2.2, 86.24 0.12, 117.91 -1.53 M-0.25 -0.38 C34.32 0.01, 67.75 0.35, 119.18 -0.05 M119.69 -1.99 C117.07 10.42, 117.02 19.74, 118.49 36.9 M118.65 0.16 C118.54 9.68, 118.28 19.44, 119 35.39 M120.29 35.15 C86.51 36.33, 50.15 35.04, 0.55 35.66 M118.89 35.95 C92.04 34.94, 63.09 34.46, -0.62 35.59 M1.72 34.3 C-0.94 21.17, 0.73 8.31, -0.4 0.86 M0.04 35.57 C0.68 21.61, -0.53 8.07, -0.08 0.19" stroke="#000000" stroke-width="1" fill="none"></path></g><g transform="translate(103 140) rotate(0 54.5 11.5)"><text x="54.5" y="18" font-family="Helvetica, Segoe UI Emoji" font-size="20px" fill="#000000" text-anchor="middle" style="white-space: pre;" direction="ltr">递归操作</text></g><g stroke-linecap="round" transform="translate(10 231) rotate(0 158.5 113)"><path d="M159.74 -1.86 C194.92 28.72, 232.39 52.66, 318.61 115.66 M159.74 0.01 C193.04 23.14, 225.11 48.4, 317.45 114.99 M317.59 114.07 C256.3 160.41, 194.34 204.47, 157.44 226.48 M316.39 114.67 C259.05 155.97, 201.51 196.28, 159.91 226.88 M159.11 226.35 C114.62 194.64, 66.55 161.3, 0.49 113.08 M159.05 225.93 C114.04 194.58, 68.58 162.85, -0.83 114.13 M1.79 112.3 C33.21 88.91, 65.52 66.95, 160.3 -0.1 M0.32 114.38 C35.39 90.32, 70.64 64.64, 159.41 0.4" stroke="#000000" stroke-width="1" fill="none"></path></g><g transform="translate(15 319) rotate(0 153.5 25)"><text x="153.5" y="18" font-family="Virgil, Segoe UI Emoji" font-size="20px" fill="#000000" text-anchor="middle" style="white-space: pre;" direction="ltr">保留操作返回值</text><text x="153.5" y="43" font-family="Virgil, Segoe UI Emoji" font-size="20px" fill="#000000" text-anchor="middle" style="white-space: pre;" direction="ltr">判断函数结束 Yes or No?</text></g><g stroke-linecap="round" transform="translate(118 522) rotate(0 53 17.5)"><path d="M8.75 0 M8.75 0 C38.98 -0.98, 66.98 -1.04, 97.25 0 M8.75 0 C41.67 -0.68, 76.05 -0.28, 97.25 0 M97.25 0 C104.4 0.77, 104.29 1.82, 106 8.75 M97.25 0 C105.05 0.38, 106.97 3.4, 106 8.75 M106 8.75 C104.57 14.53, 104.53 20.42, 106 26.25 M106 8.75 C105.14 13.07, 106.59 17.37, 106 26.25 M106 26.25 C106.94 33.41, 101.86 35.05, 97.25 35 M106 26.25 C105.05 30.11, 104.33 35.88, 97.25 35 M97.25 35 C61.71 36.25, 30.55 37.69, 8.75 35 M97.25 35 C67.09 35.02, 35.17 34.74, 8.75 35 M8.75 35 C4.27 33.03, -0.35 31.31, 0 26.25 M8.75 35 C1.89 35.03, 1.34 30.59, 0 26.25 M0 26.25 C-1.33 18.42, -0.6 12.83, 0 8.75 M0 26.25 C-0.03 21.42, 0.15 18.04, 0 8.75 M0 8.75 C0.38 2.27, 3.58 -0.22, 8.75 0 M0 8.75 C-2.18 2.71, 2.3 1.72, 8.75 0" stroke="#000000" stroke-width="1" fill="none"></path></g><g transform="translate(123 530.5) rotate(0 48 9)"><text x="48" y="14" font-family="Helvetica, Segoe UI Emoji" font-size="16px" fill="#000000" text-anchor="middle" style="white-space: pre;" direction="ltr">程序结束</text></g><g stroke-linecap="round"><g transform="translate(170.18789620406596 64) rotate(0 -2.426006531225255 32.5)"><path d="M0 0 C-0.81 10.83, -4.04 54.17, -4.85 65 M0 0 C-0.81 10.83, -4.04 54.17, -4.85 65" stroke="#000000" stroke-width="1" fill="none"></path></g><g transform="translate(170.18789620406596 64) rotate(0 -2.426006531225255 32.5)"><path d="M-12.99 36.12 C-11.07 42.91, -9.16 49.69, -4.85 65 M-12.99 36.12 C-10.69 44.26, -8.4 52.39, -4.85 65" stroke="#000000" stroke-width="1" fill="none"></path></g><g transform="translate(170.18789620406596 64) rotate(0 -2.426006531225255 32.5)"><path d="M7.48 37.65 C4.58 44.08, 1.69 50.5, -4.85 65 M7.48 37.65 C4.01 45.35, 0.53 53.06, -4.85 65" stroke="#000000" stroke-width="1" fill="none"></path></g></g><g stroke-linecap="round"><g transform="translate(164.82595067330158 177) rotate(0 0.16758774000425092 23.838140310014268)"><path d="M0 0 C0.06 7.95, 0.28 39.73, 0.34 47.68 M0 0 C0.06 7.95, 0.28 39.73, 0.34 47.68" stroke="#000000" stroke-width="1" fill="none"></path></g><g transform="translate(164.82595067330158 177) rotate(0 0.16758774000425092 23.838140310014268)"><path d="M-7.98 25.33 C-5.98 30.7, -3.98 36.07, 0.34 47.68 M-7.98 25.33 C-5.7 31.44, -3.43 37.55, 0.34 47.68" stroke="#000000" stroke-width="1" fill="none"></path></g><g transform="translate(164.82595067330158 177) rotate(0 0.16758774000425092 23.838140310014268)"><path d="M8.33 25.22 C6.41 30.62, 4.49 36.01, 0.34 47.68 M8.33 25.22 C6.14 31.36, 3.96 37.5, 0.34 47.68" stroke="#000000" stroke-width="1" fill="none"></path></g></g><g stroke-linecap="round"><g transform="translate(171.16186792303301 464.7549239027519) rotate(0 0.05041468856438769 26.62253804862405)"><path d="M0 0 C0.02 8.87, 0.08 44.37, 0.1 53.25 M0 0 C0.02 8.87, 0.08 44.37, 0.1 53.25" stroke="#000000" stroke-width="1" fill="none"></path></g><g transform="translate(171.16186792303301 464.7549239027519) rotate(0 0.05041468856438769 26.62253804862405)"><path d="M-9.05 28.25 C-6.02 36.53, -2.99 44.81, 0.1 53.25 M-9.05 28.25 C-6.91 34.1, -4.77 39.95, 0.1 53.25" stroke="#000000" stroke-width="1" fill="none"></path></g><g transform="translate(171.16186792303301 464.7549239027519) rotate(0 0.05041468856438769 26.62253804862405)"><path d="M9.16 28.21 C6.16 36.5, 3.16 44.8, 0.1 53.25 M9.16 28.21 C7.04 34.07, 4.92 39.93, 0.1 53.25" stroke="#000000" stroke-width="1" fill="none"></path></g></g><g transform="translate(183 454) rotate(0 16.5 12.5)"><text x="0" y="18" font-family="Virgil, Segoe UI Emoji" font-size="20px" fill="#000000" text-anchor="start" style="white-space: pre;" direction="ltr">Yes</text></g><g stroke-linecap="round"><g transform="translate(340.07651704506316 343.18268300585396) rotate(1.9414863909205047 66.46665380806053 -4.322431722375029)"><path d="M1.18 -1.1 C23.09 -2.57, 110.79 -8.11, 132.59 -9.58 M0.35 0.93 C22.07 -0.28, 110.2 -6.52, 132.03 -8.15" stroke="#000000" stroke-width="1" fill="none"></path></g></g><g stroke-linecap="round"><g transform="translate(471 336) rotate(357.5633517531898 0 -93.5)"><path d="M0 0 C0 -31.17, 0 -155.83, 0 -187 M0 0 C0 -31.17, 0 -155.83, 0 -187" stroke="#000000" stroke-width="1" fill="none"></path></g></g><g stroke-linecap="round"><g transform="translate(466 149) rotate(0 -119.78572192750875 -0.49091257592661464)"><path d="M0.22 -1.19 C-39.63 -1.03, -199.8 0.1, -239.79 0.22 M-1.13 0.8 C-40.53 0.64, -198.15 -1.75, -237.49 -1.78" stroke="#000000" stroke-width="1" fill="none"></path></g><g transform="translate(466 149) rotate(0 -119.78572192750875 -0.49091257592661464)"><path d="M-211.19 -13.11 C-215.73 -10.51, -223.68 -8.87, -236.65 -0.55 M-209.79 -10.86 C-221.1 -6.67, -232.54 -3.09, -237.67 -1.67" stroke="#000000" stroke-width="1" fill="none"></path></g><g transform="translate(466 149) rotate(0 -119.78572192750875 -0.49091257592661464)"><path d="M-211.37 7.41 C-215.74 5.05, -223.65 1.74, -236.65 -0.55 M-209.97 9.66 C-221.03 5.75, -232.4 1.23, -237.67 -1.67" stroke="#000000" stroke-width="1" fill="none"></path></g></g><g transform="translate(350 311) rotate(0 12.5 12.5)"><text x="0" y="18" font-family="Virgil, Segoe UI Emoji" font-size="20px" fill="#000000" text-anchor="start" style="white-space: pre;" direction="ltr">No</text></g><g transform="translate(268 121) rotate(0 70.5 14)"><text x="0" y="21" font-family="Virgil, Segoe UI Emoji" font-size="20px" fill="#000000" text-anchor="start" style="white-space: pre;" direction="ltr">函数退出整理栈</text></g></svg>